<svg xmlns="http://www.w3.org/2000/svg" fill="none" viewBox="0 0 113 75">
  <rect width="106.262" height="33.9028" x=".657183" y="42.7581" fill="#FEAFE8" stroke="#000" rx="9.5" transform="rotate(-23.341 .657183 42.7581)"/>
  <rect width="55.1849" height="23.6873" x="26.1292" y="37.3295" fill="#fff" stroke="#000" rx="9.5" transform="rotate(-23.341 26.1292 37.3295)"/>
  <path fill="#000" d="M43.1529 39.9706c-.191.0824-.3743.0918-.5499.0281-.1714-.0741-.2951-.1993-.3712-.3756-.0729-.169-.0775-.3412-.0139-.5168.0678-.1861.1972-.3204.3882-.4028.191-.0824.3701-.0813.5373.0034.1641.0773.2826.2005.3555.3694.076.1763.0859.3507.0296.5231-.0594.165-.1847.2888-.3756.3712Zm.8351.6329 2.4675 5.7183-.9696.4184-2.4675-5.7183.9696-.4184Zm1.5669-.6761c.0562-.1724.0957-.3637.1183-.5739.0267-.2206.0235-.4501-.0096-.6885-.1628.0267-.3136.0002-.4524-.0792-.1389-.0795-.2416-.1964-.3082-.3507-.0824-.1909-.0902-.3705-.0234-.5388.071-.1787.2094-.3125.415-.4012.1983-.0856.3921-.0908.5814-.0157.1893.0752.3378.2376.4456.4874.0665.1542.1095.3143.1288.4803.0193.1659.0224.3345.0091.5057-.0164.1639-.0433.3237-.0807.4792-.0333.1451-.0692.2738-.1078.3863l-.7161.3091Zm6.1083 4.1472-.9695.4184-2.4676-5.7183.8594-.3709.5303.9867.022-.0095c.018-.3824.1337-.7504.3471-1.1039.2134-.3535.5699-.638 1.0693-.8535.4334-.187.8377-.2395 1.2129-.1574.3826.0789.7099.3123.9818.7003-.0063-.459.1082-.8701.3436-1.2331.2397-.3735.5982-.6632 1.0756-.8692.5289-.2283 1.0126-.2584 1.451-.0903.4353.1607.7861.5495 1.0523 1.1665l1.7306 4.0106-.9806.4231-1.6783-3.8893c-.1616-.3746-.3707-.6068-.6273-.6965-.2597-.0971-.5474-.0774-.8633.0589-.213.0919-.386.2058-.5191.3416-.1363.1285-.243.2748-.3204.4388-.0773.1641-.1357.3418-.1751.5331-.0395.1912-.0684.3867-.0868.5863l1.626 3.7682-.9696.4184-1.7258-3.9996c-.1585-.3672-.3597-.581-.6035-.6413-.2439-.0604-.5237-.0224-.8396.1139-.2056.0888-.3782.1937-.5176.3149-.1394.1211-.2546.258-.3456.4105-.0837.1494-.1468.316-.1894.5-.0458.1766-.0779.3647-.0963.5643l1.6735 3.8783Zm13.4219-5.661c-.3893.1679-.7814.2587-1.1763.2723-.395.0136-.7712-.0506-1.1287-.1926-.3533-.1524-.679-.3822-.9771-.6893-.298-.307-.55-.6992-.7561-1.1767-.2028-.4701-.3137-.9189-.3326-1.3464-.0221-.4348.0341-.8294.1688-1.1837.1419-.3575.3533-.6753.6342-.9533.2808-.278.6159-.501 1.0052-.669.3966-.1712.7924-.2636 1.1874-.2771.3949-.0136.7674.0521 1.1176.1973.3575.142.6869.3701.9881.6845.3054.3039.5595.6909.7623 1.161.2061.4774.3149.9315.3264 1.3621.019.4275-.041.8237-.1798 1.1886-.1346.3543-.3423.6705-.6232.9485-.2808.278-.6195.5026-1.0162.6738Zm-.3756-.8705c.2571-.1109.4784-.2543.6639-.4302.1823-.1832.3141-.3926.3955-.6281.0855-.246.1153-.5203.0893-.8227-.0186-.3057-.1055-.6384-.2609-.9984-.1553-.3599-.3377-.6515-.5473-.8747-.2023-.2264-.4206-.3892-.6551-.4884-.2304-.1097-.4731-.1574-.7284-.1431-.2584.0069-.5161.0658-.7732.1768-.2571.1109-.4731.2564-.6481.4365-.1781.1727-.31.3821-.3955.6281-.0813.2355-.109.5045-.0831.8069.026.3025.1166.6337.2719.9936.1554.3599.3341.6531.5364.8795.2022.2264.4185.3944.6488.5042.2345.0992.4773.1469.7284.1431.2478-.0111.5003-.0721.7574-.1831Zm4.8197-4.0663-.5068.2187 1.0507 2.4349-.9696.4184-3.4041-7.8888.9695-.4184 1.9969 4.6275.5509-.2377.945-3.3223 1.1018-.4754-1.1297 3.8332 3.6414 1.8661-1.179.5087-3.067-1.5649Z"/>
  <circle cx="10.2205" cy="47.2035" r=".709406" fill="#000" transform="rotate(-23.341 10.2205 47.2035)"/>
  <circle cx="16.735" cy="44.3927" r=".709406" fill="#000" transform="rotate(-23.341 16.735 44.3927)"/>
  <circle cx="15.1655" cy="49.7066" r=".709406" fill="#000" transform="rotate(-23.341 15.1655 49.7066)"/>
  <circle cx="13.8752" cy="55.6706" r=".709406" fill="#000" transform="rotate(-23.341 13.8752 55.6706)"/>
  <circle cx="20.3896" cy="52.8606" r=".709406" fill="#000" transform="rotate(-23.341 20.3896 52.8606)"/>
  <circle cx="17.2471" cy="63.4869" r=".709406" fill="#000" transform="rotate(-23.341 17.2471 63.4869)"/>
  <circle cx="23.7614" cy="60.6769" r=".709406" fill="#000" transform="rotate(-23.341 23.7614 60.6769)"/>
  <circle cx="18.8167" cy="58.1737" r=".709406" fill="#000" transform="rotate(-23.341 18.8167 58.1737)"/>
  <circle cx="22.9855" cy="41.6944" r=".709406" fill="#000" transform="rotate(-23.341 22.9855 41.6944)"/>
  <circle cx="21.4159" cy="47.0075" r=".709406" fill="#000" transform="rotate(-23.341 21.4159 47.0075)"/>
  <circle cx="26.6401" cy="50.1615" r=".709406" fill="#000" transform="rotate(-23.341 26.6401 50.1615)"/>
  <circle cx="30.0119" cy="57.9778" r=".709406" fill="#000" transform="rotate(-23.341 30.0119 57.9778)"/>
  <circle cx="25.0705" cy="55.4747" r=".709406" fill="#000" transform="rotate(-23.341 25.0705 55.4747)"/>
  <circle cx="82.1315" cy="16.1736" r=".709406" fill="#000" transform="rotate(-23.341 82.1315 16.1736)"/>
  <circle cx="88.6458" cy="13.3628" r=".709406" fill="#000" transform="rotate(-23.341 88.6458 13.3628)"/>
  <circle cx="87.0762" cy="18.6768" r=".709406" fill="#000" transform="rotate(-23.341 87.0762 18.6768)"/>
  <circle cx="85.7861" cy="24.6408" r=".709406" fill="#000" transform="rotate(-23.341 85.7861 24.6408)"/>
  <circle cx="92.3003" cy="21.8309" r=".709406" fill="#000" transform="rotate(-23.341 92.3003 21.8309)"/>
  <circle cx="89.1579" cy="32.457" r=".709406" fill="#000" transform="rotate(-23.341 89.1579 32.457)"/>
  <circle cx="95.6723" cy="29.647" r=".709406" fill="#000" transform="rotate(-23.341 95.6723 29.647)"/>
  <circle cx="90.7275" cy="27.1438" r=".709406" fill="#000" transform="rotate(-23.341 90.7275 27.1438)"/>
  <circle cx="94.8963" cy="10.6645" r=".709406" fill="#000" transform="rotate(-23.341 94.8963 10.6645)"/>
  <circle cx="93.3267" cy="15.9776" r=".709406" fill="#000" transform="rotate(-23.341 93.3267 15.9776)"/>
  <circle cx="98.5508" cy="19.1316" r=".709406" fill="#000" transform="rotate(-23.341 98.5508 19.1316)"/>
  <circle cx="101.923" cy="26.9479" r=".709406" fill="#000" transform="rotate(-23.341 101.923 26.9479)"/>
  <circle cx="96.9812" cy="24.4447" r=".709406" fill="#000" transform="rotate(-23.341 96.9812 24.4447)"/>
</svg>
