<svg xmlns="http://www.w3.org/2000/svg" fill="none" viewBox="0 0 187 186">
  <path fill="#fff" stroke="#000" d="M93.5 185.5c51.36 0 93-41.411 93-92.5 0-51.0889-41.64-92.5-93-92.5C42.1401.5.5 41.9111.5 93c0 51.089 41.6401 92.5 93 92.5Z"/>
  <mask id="a" width="186" height="184" x="1" y="1" maskUnits="userSpaceOnUse" style="mask-type:alpha">
    <path fill="#fff" stroke="#000" d="M185.574 93c0 50.532-41.187 91.5-91.9998 91.5-50.8127 0-91.99998-40.968-91.99998-91.5 0-50.5315 41.18728-91.5 91.99998-91.5 50.8128 0 91.9998 40.9685 91.9998 91.5Z"/>
  </mask>
  <g mask="url(#a)">
    <path fill="#6FC1FD" stroke="#000" d="m-45 87.9148 179.4166138-1.102308.3726658 60.6567552-179.4166139 1.102308z"/>
    <path fill="#fff" stroke="#000" d="M132.464 67.3262c2.147 16.4745-8.764 31.4315-24.308 33.4578-15.5437 2.025-29.9242-9.6353-32.0713-26.1098-2.1471-16.4745 8.7642-31.4315 24.3083-33.4573 15.544-2.0259 29.924 9.6348 32.071 26.1093Z"/>
    <mask id="b" fill="#fff">
      <path fill-rule="evenodd" d="M111.208 84.4726c7.02-.9149 11.928-7.6635 10.962-15.0734-.966-7.4099-7.439-12.6751-14.459-11.7602-7.02.9149-11.9281 7.6635-10.9624 15.0734.9658 7.4099 7.4394 12.6751 14.4594 11.7602Z" clip-rule="evenodd"/>
    </mask>
    <path fill="#000" fill-rule="evenodd" d="M111.208 84.4726c7.02-.9149 11.928-7.6635 10.962-15.0734-.966-7.4099-7.439-12.6751-14.459-11.7602-7.02.9149-11.9281 7.6635-10.9624 15.0734.9658 7.4099 7.4394 12.6751 14.4594 11.7602Z" clip-rule="evenodd"/>
    <path fill="#000" d="M121.178 69.5284c.901 6.9135-3.677 13.1155-10.099 13.9525l.258 1.9833c7.617-.9928 12.855-8.2879 11.824-16.1942l-1.983.2584ZM107.84 58.6306c6.422-.837 12.437 3.9844 13.338 10.8978l1.983-.2584c-1.03-7.9064-7.962-13.6154-15.58-12.6226l.259 1.9832ZM97.7402 72.5831c-.901-6.9134 3.6768-13.1154 10.0998-13.9525l-.259-1.9832c-7.617.9928-12.8544 8.2879-11.824 16.1942l1.9832-.2585Zm13.3388 10.8978c-6.423.8371-12.4377-3.9843-13.3388-10.8978l-1.9832.2585c1.0304 7.9063 7.963 13.6154 15.58 12.6226l-.258-1.9833Z" mask="url(#b)"/>
    <path fill="#fff" d="m114 70.9821 15-5 1.5 5-4 8.5-12.5-8.5Z"/>
    <path fill="#fff" stroke="#000" d="M83.8216 66.3438c2.1471 16.4745-8.7642 31.4315-24.3081 33.4574-15.5438 2.0258-29.9243-9.6349-32.0714-26.1094-2.1471-16.4745 8.7642-31.4315 24.308-33.4574 15.5439-2.0258 29.9243 9.6349 32.0715 26.1094Z"/>
    <mask id="c" fill="#fff">
      <path fill-rule="evenodd" d="M62.5653 83.4901c7.0199-.9149 11.9277-7.6634 10.962-15.0733-.9657-7.4099-7.4394-12.6751-14.4592-11.7602-7.0199.9149-11.9278 7.6635-10.9621 15.0733.9658 7.4099 7.4394 12.6751 14.4593 11.7602Z" clip-rule="evenodd"/>
    </mask>
    <path fill="#000" fill-rule="evenodd" d="M62.5653 83.4901c7.0199-.9149 11.9277-7.6634 10.962-15.0733-.9657-7.4099-7.4394-12.6751-14.4592-11.7602-7.0199.9149-11.9278 7.6635-10.9621 15.0733.9658 7.4099 7.4394 12.6751 14.4593 11.7602Z" clip-rule="evenodd"/>
    <path fill="#000" d="M72.5357 68.546c.901 6.9134-3.6772 13.1155-10.0996 13.9525l.2584 1.9833c7.6174-.9928 12.8549-8.2879 11.8244-16.1943l-1.9832.2585ZM59.1973 57.6482c6.4224-.837 12.4374 3.9844 13.3384 10.8978l1.9832-.2585c-1.0304-7.9063-7.9627-13.6153-15.5801-12.6225l.2585 1.9832ZM49.0977 71.6007c-.9011-6.9134 3.6772-13.1155 10.0996-13.9525l-.2585-1.9832c-7.6174.9927-12.8548 8.2879-11.8244 16.1942l1.9833-.2585Zm13.3384 10.8978c-6.4224.8371-12.4374-3.9844-13.3384-10.8978l-1.9833.2585c1.0305 7.9063 7.9628 13.6153 15.5801 12.6226l-.2584-1.9833Z" mask="url(#c)"/>
    <path fill="#fff" d="m65.3574 69.9997 15-5 1.5 5-4 8.5-12.5-8.5Z"/>
    <path fill="#6FC1FD" stroke="#000" d="M-44.3008 147.079h179.42v48.4919h-179.42z"/>
    <path fill="#fff" stroke="#000" d="M79.6444 131.742c-15.1716.6-24.0408-8.685-28.2821-16.709-1.6274-3.079 1.0464-6.269 4.5091-5.901l7.5889.809c12.0969 1.616 26.4493 1.106 29.0532 1.003 1.307-.052 4.9037-.349 8.1625-.632 3.163-.275 5.739 2.443 4.491 5.363-3.019 7.061-10.4203 15.47-25.5226 16.067Z"/>
    <path stroke="#000" d="M54.7053 119.638c8.7851 3.498 30.8276 8.224 48.7177-.853"/>
    <path fill="#D9D9D9" d="M167.5 129.087v3.071c0 15.74-12.76 28.5-28.5 28.5-6.627 0-12-5.373-12-12v-36.929c0-6.39 5.181-11.571 11.571-11.571 3.476 0 6.808.613 9.895 1.736-1.598-.622-3.377-1.179-5.466-1.736-1.333-6.6663-.8-17.6001 12-16.0001 15.766 1.9707 8.043 27.2531 4.648 25.1131 4.869 5.177 7.852 12.148 7.852 19.816Z"/>
    <path stroke="#000" d="M127 120.658v-8.929c0-6.39 5.181-11.571 11.571-11.571 15.977 0 28.929 12.952 28.929 28.929v3.071c0 15.74-12.76 28.5-28.5 28.5-6.627 0-12-5.373-12-12v-6m0-22h14m-14 0v22m0 0h14m2-42.5c-1.333-6.6663-.8-17.6001 12-16.0001 16 2 7.809 28.0081 4.5 25.0001-5.5-5-9-7-16.5-9Z"/>
  </g>
</svg>